<svg width="77" height="81" viewBox="0 0 77 81" fill="none" xmlns="http://www.w3.org/2000/svg">
<path d="M74.9375 25.3125H2.0625C0.923484 25.3125 0 24.4625 0 23.4141V17.7188C0 13.5248 3.69359 10.125 8.25 10.125H16.5V1.89844C16.5 0.850025 17.4235 0 18.5625 0H25.4375C26.5765 0 27.5 0.850025 27.5 1.89844V10.125H49.5V1.89844C49.5 0.850025 50.4235 0 51.5625 0H58.4375C59.5765 0 60.5 0.850025 60.5 1.89844V10.125H68.75C73.3064 10.125 77 13.5248 77 17.7188V23.4141C77 24.4625 76.0765 25.3125 74.9375 25.3125ZM2.0625 30.375H74.9375C76.0765 30.375 77 31.225 77 32.2734V73.4062C77 77.6002 73.3064 81 68.75 81H8.25C3.69359 81 0 77.6002 0 73.4062V32.2734C0 31.225 0.923484 30.375 2.0625 30.375ZM59.3477 45.5541L54.5062 41.0615C53.7041 40.3171 52.3982 40.3122 51.5895 41.0507L33.3644 57.6911L25.4616 50.3581C24.6594 49.6138 23.3533 49.6089 22.5447 50.3474L17.6639 54.8039C16.8553 55.5423 16.8499 56.7443 17.6523 57.4886L31.8493 70.6621C32.6514 71.4064 33.9573 71.4113 34.766 70.6728L59.3361 48.2388C60.1447 47.5005 60.1501 46.2985 59.3477 45.5541Z" fill="black"/>
</svg>
