<svg width="81" height="86" viewBox="0 0 81 86" fill="none" xmlns="http://www.w3.org/2000/svg">
<path d="M40.5 0C18.127 0 0 19.246 0 43C0 66.754 18.127 86 40.5 86C62.873 86 81 66.754 81 43C81 19.246 62.873 0 40.5 0ZM49.8248 60.7028L35.4212 49.5887C34.9149 49.1899 34.621 48.5657 34.621 47.9069V18.7258C34.621 17.5815 35.5028 16.6452 36.5806 16.6452H44.4194C45.4972 16.6452 46.379 17.5815 46.379 18.7258V42.6012L56.749 50.6117C57.6308 51.2879 57.8105 52.5883 57.1736 53.5246L52.5683 60.252C51.9314 61.171 50.7067 61.379 49.8248 60.7028Z" fill="black"/>
</svg>
