<svg width="86" height="86" viewBox="0 0 86 86" fill="none" xmlns="http://www.w3.org/2000/svg">
<path d="M43 43C56.5719 43 67.5714 33.3754 67.5714 21.5C67.5714 9.62461 56.5719 0 43 0C29.4281 0 18.4286 9.62461 18.4286 21.5C18.4286 33.3754 29.4281 43 43 43ZM19.9643 71.2188C19.9643 73.4527 22.0183 75.25 24.5714 75.25C27.1246 75.25 29.1786 73.4527 29.1786 71.2188C29.1786 68.9848 27.1246 67.1875 24.5714 67.1875C22.0183 67.1875 19.9643 68.9848 19.9643 71.2188ZM61.4286 48.4758V56.7062C68.4353 57.9492 73.7143 63.3914 73.7143 69.875V76.8793C73.7143 78.1559 72.6777 79.2645 71.2379 79.5164L65.0567 80.5914C64.2312 80.7426 63.425 80.2723 63.2522 79.5332L62.6571 76.8961C62.4844 76.1738 63.0219 75.4516 63.8665 75.3172L67.5714 74.6621V69.875C67.5714 59.3266 49.1429 58.9402 49.1429 70.1941V74.6789L52.8478 75.334C53.6732 75.4852 54.2107 76.1906 54.0571 76.9129L53.4621 79.55C53.2893 80.2723 52.483 80.7426 51.6576 80.6082L45.6683 79.9027C44.1518 79.718 43.0192 78.5926 43.0192 77.232V69.875C43.0192 63.3914 48.2982 57.966 55.3049 56.7062V49.1141C54.8826 49.2316 54.4603 49.2988 54.0379 49.4332C50.5826 50.4914 46.8777 51.0793 43.0192 51.0793C39.1607 51.0793 35.4558 50.4914 32.0004 49.4332C30.5799 48.9965 29.1402 48.7277 27.6621 48.5598V62.266C32.0964 63.425 35.3406 66.9859 35.3406 71.2355C35.3406 76.4258 30.5223 80.6418 24.5906 80.6418C18.6589 80.6418 13.8406 76.4258 13.8406 71.2355C13.8406 66.9859 17.0848 63.425 21.5192 62.266V48.7613C9.31027 50.5586 0 59.7633 0 70.95V78.475C0 82.6238 3.85848 86 8.6 86H77.4C82.1415 86 86 82.6238 86 78.475V70.95C86 58.8562 75.0964 49.0637 61.4286 48.4758Z" fill="black"/>
</svg>
