<svg width="76" height="86" viewBox="0 0 76 86" fill="none" xmlns="http://www.w3.org/2000/svg">
<path d="M47.0538 2.01227C44.2904 0.75082 41.2419 0 38 0C28.8919 0 21.1205 5.56481 17.8956 13.4375H31.6689L47.0538 2.01227ZM58.1044 13.4375C56.7642 10.1671 54.5979 7.35703 51.9141 5.11969L40.7126 13.4375H58.1044ZM38 43C49.9921 43 59.7143 33.3737 59.7143 21.5C59.7143 20.5795 59.5531 19.7027 59.4412 18.8125H16.5588C16.4452 19.7027 16.2857 20.5795 16.2857 21.5C16.2857 33.3737 26.0079 43 38 43ZM13.5714 50.3402V86H35.3298L18.6285 48.7916C16.8872 49.1093 15.1898 49.6291 13.5714 50.3402ZM0 77.9375C0 82.3904 3.64562 86 8.14286 86V53.7903C3.20286 57.9307 0 64.0398 0 70.95V77.9375ZM43.4286 69.875H34.0337L41.2724 86H43.4286C47.919 86 51.5714 82.3836 51.5714 77.9375C51.5714 73.4914 47.919 69.875 43.4286 69.875ZM53.2 48.375H50.3653C46.5924 50.0849 42.4124 51.0625 38 51.0625C33.5876 51.0625 29.4076 50.0849 25.6347 48.375H24.3845L31.6231 64.5H43.4286C50.9115 64.5 57 70.5284 57 77.9375C57 80.9744 55.938 83.7475 54.2162 86H67.8571C72.3544 86 76 82.3904 76 77.9375V70.95C76 58.4817 65.7926 48.375 53.2 48.375Z" fill="black"/>
</svg>
